<svg xmlns="http://www.w3.org/2000/svg" viewBox="0 0 192 192" width="192" height="192">
  <defs>
    <linearGradient id="gold" x1="28" y1="150" x2="160" y2="34" gradientUnits="userSpaceOnUse">
      <stop offset="0" stop-color="#9f7626"/>
      <stop offset="0.45" stop-color="#d4a941"/>
      <stop offset="1" stop-color="#f2d37a"/>
    </linearGradient>
  </defs>
  <rect width="192" height="192" rx="42" fill="#0d0d18"/>
  <rect x="10" y="10" width="172" height="172" rx="34" fill="none" stroke="#d4a941" stroke-opacity="0.22" stroke-width="2"/>
  <path d="M30 141c21-27 47-45 79-55 12-3.5 24-5.4 37-5.8v15.6c-31 .9-57 10.4-77 28.5-6.3 5.6-11.9 11.9-16.8 18.7H30v-2Z" fill="url(#gold)"/>
  <path d="M17 141c27-39 63-63 107-72.5 8.3-1.8 17-2.8 26-3v12.2c-41 1.7-74 19-100 52l-8.4 11.3H17Z" fill="url(#gold)" opacity="0.82"/>
  <path d="M105 31h37c11.4 0 20.5 2.5 27.1 7.6 6.8 5 10.1 12.1 10.1 21.4 0 7.1-2 13-6 17.4-3.8 4.3-8.8 7.3-15 8.9 7.8 1.4 13.9 4.7 18.3 9.8 4.4 5.1 6.6 11.6 6.6 19.5 0 10-3.6 17.8-11 23.5-7.2 5.6-17.6 8.4-31.1 8.4h-36V31Zm34 48c14.6 0 22-5.6 22-16.8 0-5.5-1.8-9.6-5.4-12.2-3.6-2.7-9-4-16.4-4h-16.4v33H139Zm1.6 52.4c8.2 0 14.2-1.5 18-4.4 4-3 6-7.6 6-13.8 0-6.4-2-11.2-6.2-14.4-4.2-3.2-10.4-4.8-18.8-4.8h-16.8v37.4h17.8Z" fill="url(#gold)"/>
  <path d="M87 31.4c-13.6 0-24.4 4.6-32.4 13.6-8 9.2-12 21.6-12 37.4 0 13 2.8 23.8 8.4 32.2l-15 8.2c-8.2-10.8-12.3-24.5-12.3-40.8 0-13 2.6-24.5 7.7-34.4 5.1-9.8 12.4-17.4 21.8-22.8 9.4-5.4 20.4-8 32.8-8 11.4 0 21.8 2.2 31.4 6.8v17.6c-9.4-6.6-19.5-9.8-30.4-9.8Z" fill="url(#gold)"/>
</svg>
