<svg xmlns="http://www.w3.org/2000/svg" viewBox="0 0 512 512" width="512" height="512">
  <defs>
    <linearGradient id="gold" x1="75" y1="400" x2="425" y2="90" gradientUnits="userSpaceOnUse">
      <stop offset="0" stop-color="#9f7626"/>
      <stop offset="0.45" stop-color="#d4a941"/>
      <stop offset="1" stop-color="#f2d37a"/>
    </linearGradient>
    <pattern id="grid" width="36" height="36" patternUnits="userSpaceOnUse">
      <path d="M36 0H0v36" fill="none" stroke="#ffffff" stroke-opacity="0.08" stroke-width="1"/>
    </pattern>
  </defs>
  <rect width="512" height="512" rx="108" fill="#0d0d18"/>
  <rect width="512" height="512" rx="108" fill="url(#grid)" opacity="0.16"/>
  <rect x="28" y="28" width="456" height="456" rx="86" fill="none" stroke="#d4a941" stroke-opacity="0.24" stroke-width="5"/>
  <path d="M80 376c56-72 125-120 211-146 31-9.2 64-14.4 99-15.4v42c-83 2.5-152 28-205 76-16.8 15-31.8 31.8-45 50H80v-7Z" fill="url(#gold)"/>
  <path d="M45 376c72-104 167-168 286-193.5 22-4.8 45-7.4 69-8v32.5c-109 4.6-197 50.7-266 138.5L111.5 376H45Z" fill="url(#gold)" opacity="0.82"/>
  <path d="M280 82h99c30.4 0 54.6 6.8 72.2 20.2 18.1 13.3 27 32.2 27 57.1 0 19-5.3 34.6-16 46.4-10.1 11.5-23.4 19.4-40 23.7 20.8 3.7 37 12.5 48.8 26.1 11.7 13.6 17.6 31 17.6 52 0 26.6-9.6 47.4-29.3 62.6-19.2 14.9-46.9 22.4-82.9 22.4H280V82Zm90.6 128c39 0 58.6-14.9 58.6-44.8 0-14.7-4.8-25.6-14.4-32.5-9.6-7.2-24-10.7-43.7-10.7h-43.7v88h43.2Zm4.2 139.7c21.8 0 37.8-4 48-11.7 10.6-8 16-20.2 16-36.8 0-17-5.3-29.8-16.5-38.4-11.2-8.5-27.7-12.8-50.1-12.8h-44.8v99.7h47.4Z" fill="url(#gold)"/>
  <path d="M232 83c-36.2 0-65 12.2-86.4 36.2-21.3 24.5-32 57.6-32 99.7 0 34.6 7.5 63.4 22.4 85.8l-40 21.8C74.1 297.8 63.2 261.3 63.2 218c0-34.6 7-65.3 20.5-91.7 13.6-26.1 33-46.4 58-60.8 25-14.4 54.4-21.3 87.4-21.3 30.4 0 58.1 5.9 83.7 18.1v46.9C287.7 91.5 260.8 83 232 83Z" fill="url(#gold)"/>
</svg>
